<?xml version="1.0" encoding="UTF-8" standalone="no"?>
<!-- Created with Inkscape (http://www.inkscape.org/) -->
<svg
   xmlns:dc="http://purl.org/dc/elements/1.1/"
   xmlns:cc="http://web.resource.org/cc/"
   xmlns:rdf="http://www.w3.org/1999/02/22-rdf-syntax-ns#"
   xmlns:svg="http://www.w3.org/2000/svg"
   xmlns="http://www.w3.org/2000/svg"
   xmlns:sodipodi="http://sodipodi.sourceforge.net/DTD/sodipodi-0.dtd"
   xmlns:inkscape="http://www.inkscape.org/namespaces/inkscape"
   width="412.29001"
   height="310.45001"
   id="svg2"
   sodipodi:version="0.32"
   inkscape:version="0.45.1"
   version="1.0"
   sodipodi:docbase="C:\Documents and Settings\Hi-Family\My Documents\My Pictures"
   sodipodi:docname="Aguascalientes, AG.svg"
   inkscape:output_extension="org.inkscape.output.svg.inkscape">
  <defs
     id="defs4" />
  <sodipodi:namedview
     id="base"
     pagecolor="#ffffff"
     bordercolor="#666666"
     borderopacity="1.0"
     gridtolerance="10000"
     guidetolerance="10"
     objecttolerance="10"
     inkscape:pageopacity="0.0"
     inkscape:pageshadow="2"
     inkscape:zoom="1.2143662"
     inkscape:cx="206.145"
     inkscape:cy="155.22501"
     inkscape:document-units="px"
     inkscape:current-layer="layer1"
     width="412.29px"
     height="310.45px"
     inkscape:window-width="800"
     inkscape:window-height="573"
     inkscape:window-x="0"
     inkscape:window-y="0"
     showguides="true"
     inkscape:guide-bbox="true" />
  <metadata
     id="metadata7">
    <rdf:RDF>
      <cc:Work
         rdf:about="">
        <dc:format>image/svg+xml</dc:format>
        <dc:type
           rdf:resource="http://purl.org/dc/dcmitype/StillImage" />
      </cc:Work>
    </rdf:RDF>
  </metadata>
  <g
     inkscape:label="Layer 1"
     inkscape:groupmode="layer"
     id="layer1">
    <path
       style="fill:#5b5b5b;fill-opacity:1;fill-rule:evenodd;stroke:none;stroke-width:1px;stroke-linecap:butt;stroke-linejoin:miter;stroke-opacity:1"
       d="M 163.62947,50.901387 C 163.03929,51.048983 162.17599,51.724561 161.71837,52.334718 C 161.24738,52.962701 160.22176,53.576093 159.80726,54.405084 C 159.30632,55.406967 159.52395,55.502296 158.53319,55.997674 C 157.72232,56.403107 157.21509,57.200538 156.78134,58.068043 C 156.30101,59.028706 156.0418,59.023593 154.87023,59.023593 C 153.91468,59.023593 152.95912,59.023593 152.00357,59.023593 C 150.82991,59.023593 150.03861,58.6518 148.97765,58.386556 C 148.04386,58.153109 147.7523,58.043685 147.06654,58.386556 C 146.30796,58.765851 146.08437,59.116531 145.31469,59.501373 C 144.58231,59.867567 144.68069,61.559598 144.5184,62.208776 C 144.3683,62.809198 143.5109,63.057869 143.08507,63.164326 L 81.77037,63.005069 C 81.397948,64.494768 82.00564,64.549396 81.133334,65.712472 C 80.755248,66.216584 80.974072,67.46011 80.974072,68.101357 C 80.974072,68.950734 80.974072,69.800116 80.974072,70.649498 C 80.974072,71.445791 80.974072,72.24209 80.974072,73.038383 C 80.974072,74.096883 80.496297,74.080658 80.496297,75.10875 C 80.496297,75.958132 80.496297,76.807514 80.496297,77.656891 C 80.496297,78.867943 80.473478,79.090226 81.77037,79.090226 C 82.414222,79.090226 82.844107,80.184503 83.522219,80.523556 C 84.421087,80.972987 86.270952,81.774041 87.185171,81.956886 C 87.695709,82.058992 88.789389,83.176557 89.255538,83.549478 C 90.403228,84.467625 91.479284,85.260037 92.918496,85.619844 C 93.322838,85.720927 93.937373,85.619844 94.351826,85.619844 C 95.465966,85.898381 93.129777,87.567755 92.440722,88.486504 C 91.793805,89.349051 91.304386,89.803613 90.848129,90.716126 C 90.394725,91.622936 89.815602,92.621932 89.4148,93.423529 C 88.953731,94.345668 88.419153,95.056213 87.822208,95.653158 C 87.179636,96.29573 86.433008,97.29468 86.07036,98.201302 C 85.909652,98.603082 84.582987,100.00719 84.318512,100.27166 C 83.516828,101.07335 82.84483,102.58199 82.407408,103.45684 C 82.21714,103.83737 82.001834,104.44208 81.929627,104.73091 C 81.823453,104.94326 81.717281,105.15561 81.611109,105.36795 C 81.32581,105.93855 81.451852,106.9585 81.451852,107.75684 C 81.451852,108.90191 80.974072,109.07191 80.974072,110.14572 C 80.974072,110.9895 81.29259,111.74167 81.29259,112.69386 C 81.29259,113.57574 80.638224,114.30379 80.177779,114.76423 C 79.589887,115.35213 79.304819,116.0958 78.744449,116.51608 C 77.767093,117.24909 78.693975,118.26793 77.31112,118.26793 C 76.560395,118.26793 75.752604,117.63941 75.081491,117.47163 C 74.867098,117.41803 74.350538,119.12139 74.285198,119.38274 C 74.259446,119.48574 74.285198,119.59509 74.285198,119.70125 C 74.285198,120.70929 73.313383,122.44118 72.851868,123.36421 C 72.446005,124.17594 72.374088,124.85704 72.374088,125.91236 C 72.374088,126.70865 72.374088,127.50495 72.374088,128.30124 C 72.374088,128.8321 72.374088,129.36297 72.374088,129.89383 C 72.374088,130.9191 74.323722,130.55013 75.240752,131.00864 C 76.048423,131.41248 76.033113,131.72727 75.240752,132.12346 C 74.459922,132.51387 74.357283,132.47216 74.125942,133.39753 C 73.952323,134.092 74.125942,135.06633 74.125942,135.78641 C 74.125942,136.56267 73.823683,137.15468 73.648161,137.85678 C 73.523797,138.35424 75.496152,138.1753 75.87779,138.1753 C 76.070654,138.1753 76.43713,135.93793 76.51482,135.62716 C 76.769803,134.60724 76.51065,134.198 77.151857,133.55679 C 77.742405,132.96624 78.482264,133.55922 78.903706,133.87531 C 79.692542,134.46693 80.173678,134.6675 80.655554,135.14938 C 81.29609,135.78991 81.300463,136.34775 82.088889,136.74197 C 82.88524,137.14014 83.657921,137.06637 84.318512,136.90122 C 85.104919,136.70462 86.073981,136.54018 86.866659,135.94567 C 87.707566,135.31499 88.458979,135.30883 89.096282,134.83086 C 89.575108,134.47174 90.642141,134.29682 91.166648,134.03456 L 105.97773,145.50121 L 103.11107,155.05675 C 104.30889,154.45784 104.87991,156.04273 105.97773,154.57897 C 106.41489,153.99609 106.45551,153.52734 106.45551,152.66786 C 106.45551,151.7434 106.92238,150.93783 107.25181,150.27898 C 107.3734,150.03579 109.29799,151.30812 109.64069,151.39379 C 110.88138,151.70396 111.51239,152.42914 112.50735,152.82712 C 113.29431,153.14191 113.62216,154.00615 113.62216,154.89749 C 113.62216,155.72067 113.14402,156.01267 112.66661,156.49008 C 112.36293,156.79376 112.28697,158.16788 112.18883,158.56044 C 112.00988,159.27626 112.1627,160.41682 112.02957,160.94933 C 111.85515,161.647 111.40056,162.35058 111.23328,163.01969 C 111.00561,163.93035 111.74291,163.24266 111.87031,163.17896 C 111.80571,163.43738 114.94967,163.60372 115.21475,163.65673 C 115.81176,163.77613 115.87829,163.92202 116.01105,164.45302 L 118.24067,182.13077 C 119.87361,182.45736 120.454,183.88262 122.38141,183.88262 C 123.1777,183.88262 123.97399,183.88262 124.77029,183.88262 C 125.74439,183.88262 125.83989,183.26717 126.04436,182.44929 C 126.22852,181.71267 126.76408,180.85059 126.99991,180.37892 C 127.47805,179.42265 128.11896,179.58263 129.22954,179.58263 C 130.23818,179.58263 131.24682,179.58263 132.25546,179.58263 C 133.21034,179.58263 134.08713,179.44323 134.80361,179.26411 C 135.60438,179.06392 136.68026,179.26411 137.51101,179.26411 C 138.41347,179.26411 139.31594,179.26411 140.21841,179.26411 C 141.17396,179.26411 142.12952,179.26411 143.08507,179.26411 C 144.09371,179.26411 145.10235,179.26411 146.11099,179.26411 C 146.80726,179.26411 147.55147,180.53818 148.65913,180.53818 C 149.73237,180.53818 150.75074,181.19115 151.36654,181.65299 C 152.27523,181.65299 151.4544,179.75835 151.04802,178.94559 C 150.67425,178.19806 150.68485,177.94538 150.09246,177.353 C 149.54773,176.80827 149.19273,176.29401 148.65913,175.76041 C 147.95864,175.05991 147.39225,174.49353 146.74802,173.84931 C 146.08355,173.18482 145.32734,172.48593 144.67766,171.61968 C 143.97739,170.68598 144.63576,170.22825 145.31469,169.54931 C 145.89247,168.97154 147.31014,168.55159 147.86284,168.27524 C 148.62768,167.89283 148.67443,167.51494 149.45543,167.31969 C 150.49424,167.05999 151.24071,167.16043 152.48135,167.16043 C 153.12919,167.16043 153.50914,168.26045 153.75542,168.75302 C 154.20108,169.64435 155.34801,170.14663 155.34801,171.1419 C 155.34801,172.17481 155.99002,172.45952 156.78134,173.05301 C 157.51556,173.60368 157.91861,174.17905 158.53319,174.48634 C 159.39716,174.91833 160.42536,175.72255 160.76281,176.39745 C 160.92373,176.71927 161.05435,176.49463 161.24059,176.55671 C 161.45294,176.60979 161.66528,176.66288 161.87763,176.71597 C 162.73706,176.93082 163.50795,177.03448 164.42577,177.03448 C 165.15051,177.03448 165.42071,177.51226 166.33688,177.51226 C 167.20277,177.51226 167.45169,179.11719 167.45169,177.83078 C 167.45169,177.12503 167.7636,176.35317 168.08873,175.91967 C 168.65535,175.16417 169.20354,175.82853 169.20354,174.48634 C 169.20354,173.43568 169.34461,173.08938 169.68132,172.41598 C 170.11683,171.54494 170.6628,172.15301 170.95539,170.98264 C 171.14315,170.23158 172.55222,171.46466 172.70724,171.61968 C 173.43548,172.34793 173.89117,171.91717 174.29982,172.73449 C 174.63436,173.40355 174.77761,171.03028 174.77761,170.82339 C 174.77761,170.02709 174.77761,169.23079 174.77761,168.4345 C 174.77761,167.63821 174.77761,166.84191 174.77761,166.04562 C 174.77761,165.04645 175.1962,164.57138 175.5739,163.81599 C 175.69866,163.56647 175.75276,163.45826 175.89242,163.17896 C 176.38909,162.18561 177.15599,161.60736 177.64426,160.63081 C 178.02826,159.86283 178.17385,159.46419 178.91834,158.71971 C 179.46402,158.17402 179.38439,157.17401 179.55538,156.49008 C 179.76141,155.66594 180.50598,154.90738 180.82944,154.26045 C 181.11941,153.68052 180.9887,152.54308 180.9887,151.71231 C 180.9887,150.86293 180.9887,150.01355 180.9887,149.16417 C 180.9887,148.2617 180.9887,147.35923 180.9887,146.45676 C 180.9887,145.4422 180.87075,144.46305 181.30722,143.5901 C 181.62347,142.9576 181.46648,141.9502 181.46648,141.20122 C 181.46648,139.83822 181.44633,139.29011 182.89981,139.29011 C 183.11215,139.29011 183.3245,139.29011 183.53685,139.29011 C 183.86581,139.29011 184.94973,138.50404 185.28869,138.33456 C 185.88083,138.03849 186.85192,137.85678 187.67758,137.85678 C 188.3545,137.85678 189.1776,137.26603 189.58869,137.06049 C 189.80103,136.95431 190.01338,136.84814 190.22573,136.74197 C 191.03363,136.33801 191.49434,135.86741 192.45535,135.62716 C 192.61821,135.58644 192.77387,135.52098 192.93312,135.46789 C 193.57335,135.30783 193.57016,133.38488 193.57016,132.76049 C 193.57016,131.9642 193.57016,131.1679 193.57016,130.37161 C 193.57016,129.84088 193.88868,128.96462 193.88868,128.14198 C 193.88868,127.29876 193.8847,126.5653 194.04794,125.91236 C 194.2606,125.06171 194.15727,124.20099 194.36646,123.36421 C 194.56058,122.58773 194.52571,121.80018 194.52571,120.97533 C 194.52571,120.86916 194.52571,120.76298 194.52571,120.65681 L 204.55903,126.23087 C 204.55903,124.93808 205.3402,124.53953 205.51458,123.84199 C 205.66962,123.22184 204.36713,123.13967 204.08125,122.56792 C 203.78477,121.97495 204.08125,120.36884 204.08125,119.70125 C 204.08125,118.295 204.11837,117.88833 202.96644,117.31238 C 201.784,116.72115 201.21459,116.78801 201.21459,118.10867 C 201.21459,118.72916 200.38681,119.95558 200.09978,120.33829 C 199.27346,121.44005 199.12896,121.32222 198.02941,120.49755 C 197.28231,119.93723 196.51791,119.62308 195.95904,119.06422 C 195.60474,118.70991 195.79979,117.62271 195.79979,117.15311 C 195.11479,116.46811 196.27756,115.25519 196.27756,114.28645 C 196.27756,113.49016 196.27756,112.69386 196.27756,111.89757 C 196.27756,111.2648 197.32258,110.6933 197.71089,110.30498 C 198.51199,109.50388 197.18452,108.55649 196.75534,108.23461 C 196.0012,107.66901 195.64053,107.81004 195.64053,106.48276 C 195.64053,105.78575 195.16275,105.18598 195.16275,104.25314 C 195.16275,103.35067 195.16275,102.4482 195.16275,101.54574 C 195.16275,100.35527 195.12505,99.990852 195.95904,99.156852 C 196.63877,98.477132 195.06036,98.098912 194.68498,97.723522 C 194.02573,97.064281 193.27367,96.227087 192.29609,95.493896 C 191.39622,94.819 190.83555,94.060566 189.58869,94.060566 C 189.28989,94.060566 189.06301,93.534891 188.95165,93.423529 L 200.57756,93.582792 C 199.66887,93.582792 200.89608,91.784078 200.89608,90.875388 C 200.89608,90.043267 200.9249,89.238852 200.73681,88.486504 C 200.64067,88.101939 202.03571,87.187603 202.17014,87.053174 C 203.15963,86.063687 200.05523,86.256875 199.622,86.256875 C 198.61336,86.256875 197.60472,86.256875 196.59608,86.256875 C 195.48127,86.256875 194.36646,86.256875 193.25164,86.256875 C 192.18992,86.256875 191.12819,86.256875 190.06646,86.256875 C 189.21708,86.256875 188.3677,86.256875 187.51832,86.256875 C 186.69498,86.256875 185.85911,86.280036 185.12944,86.097619 C 184.01095,85.818001 183.66344,85.103678 182.26277,84.823545 C 181.33294,84.637577 181.1333,83.824515 180.03315,83.549478 C 179.41618,83.395231 177.63666,84.027252 176.84797,84.027252 C 176.21283,84.027252 175.80432,84.664289 174.77761,84.664289 C 173.89653,84.664289 172.77849,84.345771 171.75168,84.345771 C 171.55847,84.345771 170.76988,82.726935 170.47761,82.43466 C 169.80294,81.75999 169.5101,81.467149 169.04428,81.001331 C 168.43566,80.392707 168.56651,79.699053 168.56651,78.771708 C 168.56651,77.858778 169.63398,77.368463 169.84057,76.542079 C 170.02264,75.813823 169.99984,74.896144 169.99984,74.153195 C 169.99984,73.144556 169.99984,72.135917 169.99984,71.127273 C 169.99984,69.747628 169.86816,69.946624 168.72576,69.375425 C 167.81391,68.919504 167.17215,68.359729 166.33688,67.942095 C 165.27432,67.410821 163.90906,66.706957 165.06281,65.55321 C 165.94317,64.672841 166.97391,64.630806 166.97391,63.482844 C 166.97391,62.633462 166.97391,61.784085 166.97391,60.934703 C 166.97391,60.003298 166.81466,59.28536 166.81466,58.386556 C 166.81466,57.232324 166.35599,56.991461 165.8591,55.997674 C 165.38919,55.057862 165.54058,53.893444 165.54058,52.812495 C 165.54058,51.723939 164.80023,50.901388 163.62947,50.901387 z "
       id="path2221"
	   class="EDO"
       sodipodi:nodetypes="cssssssssssccssssssssssscssssssscsssssssssssssssssssssssssssscccsssssssssscsccsssssssssssscssssssssssssssc" />
    <path
       style="fill:#5b5b5b;fill-opacity:1;fill-rule:evenodd;stroke:none;stroke-width:1px;stroke-linecap:butt;stroke-linejoin:miter;stroke-opacity:1"
       d="M 164.83479,45.609995 C 164.23429,45.764903 162.54559,45.590196 161.76714,45.200976 C 160.83094,44.732874 161.35812,44.028401 161.35812,42.74686 C 161.35812,41.94161 161.63024,40.431342 161.76714,39.883724 C 161.79018,39.791583 164.80253,39.883724 165.0393,39.883724 C 165.14327,39.467868 168.75379,39.679214 169.334,39.679214 C 170.49289,39.679214 171.65178,39.679214 172.81066,39.679214 C 173.96711,39.679214 174.9771,39.342116 176.08282,39.065686 C 177.72296,38.655651 178.78781,38.452157 180.58203,38.452157 C 182.35334,38.452157 184.39383,37.466552 185.69478,36.816079 C 186.87169,36.227622 186.98392,35.793531 188.55791,35.793531 C 189.85314,35.793531 191.14837,35.793531 192.44359,35.793531 C 194.31288,35.793531 194.25031,35.180002 195.71575,35.180002 C 197.10713,35.180002 197.56097,37.225099 199.39693,37.225099 C 199.58485,37.225099 201.03204,35.896265 201.23751,35.793531 C 203.39854,35.793531 204.74252,36.056761 206.75927,35.384512 C 207.92345,34.99645 208.5139,34.698366 209.6224,34.975492 C 210.88014,35.289924 210.77015,36.690889 210.44045,37.020589 C 209.48803,37.973 207.9884,38.245583 206.96378,39.270196 C 206.4015,39.832481 205.5103,39.996937 204.91869,40.292744 C 204.00659,40.748788 203.4858,39.27282 202.66908,40.906273 C 202.21043,41.823562 202.06119,42.724286 201.85104,43.564898 C 201.59327,44.595986 200.82849,45.254359 200.82849,46.428033 C 200.82849,47.882648 200.42759,48.072226 201.23751,48.88215 C 201.65219,49.296824 203.77562,49.107659 204.50966,49.291169 C 205.51531,49.54258 206.96354,49.495679 207.98633,49.495679 C 209.64416,49.495679 211.32175,50.109207 213.09907,50.109207 C 214.54443,50.109207 215.90694,49.830077 216.98476,49.291169 C 217.89504,48.836029 218.38617,48.520063 219.64338,48.268621 C 221.19325,47.958645 221.77448,47.940355 222.91553,47.655092 C 223.31574,47.55504 224.19497,47.488614 224.3471,47.450582 C 225.4237,47.181434 225.45692,49.730168 224.96063,50.722736 C 224.17345,52.297099 222.71484,51.615293 224.1426,53.994891 C 224.77803,55.053957 224.22153,56.606896 224.75612,57.676063 C 224.95252,58.068853 227.70984,58.130376 228.02828,58.289592 C 228.6412,58.596056 228.82688,61.318371 229.05083,61.766258 C 229.16546,61.99554 231.93515,61.766258 232.32298,61.766258 C 233.97282,61.766258 234.04038,63.1141 234.36807,64.424887 C 234.59845,65.346383 235.74408,65.689179 236.41317,65.856452 C 237.56675,66.144845 238.12573,66.757628 239.27631,66.469981 C 240.26337,66.223212 240.5117,65.651944 241.73043,65.651944 C 242.84261,65.651944 243.30961,65.052634 244.18454,64.833902 C 245.35399,64.541541 245.14495,64.078002 245.82061,63.402337 C 246.33457,62.888386 246.44225,61.529334 246.63866,60.743707 C 246.91838,59.624807 248.08699,59.925671 249.29728,59.925671 C 250.49591,59.925671 250.51229,59.155824 250.72885,58.289592 C 251.03278,57.073872 251.34238,56.605144 251.34238,55.221949 C 251.34238,54.216832 251.31459,53.065679 251.13787,52.358814 C 250.96338,51.660854 249.87548,51.096421 249.50179,50.722736 C 248.87547,50.096415 248.0658,49.702401 249.7063,48.88215 C 250.38364,48.54348 250.58823,48.21758 250.72885,47.655092 C 250.85793,47.590553 251.67417,44.554075 251.95591,44.178427 C 252.60085,43.318505 252.79424,42.256646 252.97845,41.519802 C 253.16789,40.762083 253.18297,39.693281 253.18297,38.656666 C 253.18297,37.32571 252.99695,37.652615 251.95591,36.61157 C 251.27364,35.929303 251.30886,34.856479 250.31983,34.361963 C 249.01764,33.710867 248.92131,32.864292 249.29728,32.112357 C 249.67839,31.350135 251.83939,31.703338 252.56944,31.703338 C 253.83695,31.703338 254.9126,31.294318 256.25061,31.294318 C 257.66381,31.294318 258.55928,31.389747 259.52276,32.112357 C 260.9233,33.16276 261.87279,34.155012 262.79492,35.384512 C 263.43471,36.237557 264.23262,35.998041 265.45354,35.998041 C 266.6806,35.998041 267.90766,35.998041 269.13472,35.998041 C 270.62368,35.998041 271.17981,35.641156 271.17981,37.225099 C 271.17981,37.756118 269.91727,38.798627 269.74825,39.474705 C 269.41909,40.791353 269.71226,40.870282 270.36178,41.519802 C 270.97943,42.137454 271.55952,42.62962 271.79334,43.564898 C 271.95592,44.215214 272.76757,44.598653 273.0204,45.609995 C 273.28421,46.665243 272.7804,47.59255 272.61138,48.268621 C 272.39467,49.135481 271.93437,49.763672 271.38433,50.313717 C 270.68492,51.013122 269.89525,51.061454 268.52119,51.336266 C 267.5244,51.535625 266.27358,51.336266 265.24904,51.336266 C 264.39451,51.336266 263.34449,51.403384 262.79492,51.540775 C 262.71221,51.540775 262.3859,55.867431 262.3859,56.244498 C 262.3859,57.300111 260.98399,58.108193 260.34081,58.494105 C 259.27697,59.132409 257.89673,58.903121 256.65963,58.903121 C 255.43868,58.903121 255.12763,58.237555 253.7965,58.903121 C 252.42859,59.587075 252.8322,60.130179 251.13787,60.130179 C 249.93539,60.130179 249.73429,61.096741 249.29728,61.970765 C 248.91208,62.741162 249.09277,63.918826 249.09277,64.833902 C 249.09277,66.088667 247.90553,65.643979 246.84316,65.856452 C 245.63393,66.098298 245.82061,67.558392 245.82061,68.515075 C 245.82061,69.805143 246.22964,70.447345 246.22964,71.787233 C 246.22964,73.176318 245.94387,73.504566 245.00258,74.445857 C 244.1459,75.302545 243.98003,75.2562 243.98003,76.899972 C 243.98003,78.682217 244.07513,78.693937 245.4116,79.763109 C 245.4116,80.88304 245.82061,82.209757 245.82061,83.444282 C 245.82061,84.712641 244.46229,84.192883 243.3665,84.466832 C 242.35859,84.718807 241.67606,85.400713 240.50337,85.69389 C 239.37806,85.975215 238.40085,85.95582 237.64023,86.716435 C 237.33461,87.022054 237.64023,89.298148 237.64023,89.784085 C 237.64023,90.818262 237.61671,92.127782 237.43572,92.851729 C 237.15812,93.962139 236.67106,94.683321 236.41317,95.71486 C 236.05091,97.1639 236.41317,99.123512 236.41317,100.6231 C 236.41317,102.46981 237.49936,101.66155 239.0718,102.05466 C 240.75908,102.47648 242.34395,102.84024 242.34395,104.30427 C 242.34395,104.59988 240.41374,105.00742 240.09435,105.32681 C 239.08238,106.33878 239.80167,106.62704 237.64023,107.1674 C 236.69498,107.40372 235.35466,107.1674 234.36807,107.1674 C 233.00468,107.1674 231.64128,107.1674 230.27788,107.1674 C 228.93624,107.1674 228.45446,107.15024 227.82377,107.78093 C 227.30719,108.2975 227.74518,108.01669 227.61926,108.39446 C 227.22021,108.79351 227.61926,111.6031 227.61926,112.28014 C 227.61926,113.20824 229.25533,113.7299 229.25533,115.14328 C 229.25533,116.51051 228.19176,116.12496 227.21024,116.37034 C 226.03603,116.66389 224.77185,116.57485 223.52907,116.57485 C 222.302,116.57485 221.07494,116.57485 219.84789,116.57485 C 218.689,116.57485 217.53012,116.57485 216.37123,116.57485 C 215.21234,116.57485 214.05345,116.57485 212.89456,116.57485 C 211.87201,116.57485 210.84946,116.57485 209.82692,116.57485 C 209.11283,116.57485 208.17007,117.91974 207.78182,118.21093 C 206.9177,118.85901 207.16829,120.20093 207.16829,121.27857 C 207.16829,122.84864 206.19844,122.55832 205.73672,122.09661 C 205.4311,121.79099 205.73672,119.51489 205.73672,119.02896 C 205.73672,117.79843 205.71774,117.23475 204.71417,116.98387 C 203.69023,116.72788 203.17423,116.18986 202.26006,115.96132 C 201.00525,115.64761 200.936,115.53128 200.62398,116.77935 C 200.44021,117.51445 199.48318,118.0384 199.19241,118.61994 C 198.8133,119.37816 197.79651,117.12651 197.76085,116.98387 C 197.5379,116.09207 197.76085,114.8409 197.76085,113.91622 C 197.76085,112.71513 198.39422,111.83144 198.78339,111.05309 C 199.26368,110.09252 200.01045,109.93327 200.01045,108.39446 C 200.01045,108.24333 197.99365,107.1957 197.76085,106.96289 C 197.06138,106.26342 197.14732,105.44757 197.14732,104.30427 C 197.14732,103.41806 197.14732,102.53185 197.14732,101.64564 C 197.14732,100.04696 197.96535,99.478052 197.96535,97.964472 C 197.96535,96.823008 197.01892,96.641112 196.32928,96.123881 C 195.37262,95.406389 195.18661,95.122427 194.28418,94.896824 L 202.46457,94.692316 C 201.69912,94.118231 203.02443,92.717554 202.66908,91.829179 C 202.33882,91.003536 202.46457,89.922552 202.46457,88.966042 C 202.46457,87.829667 203.27533,87.079788 204.30516,86.307419 C 205.55082,85.373168 203.96409,84.875848 203.0781,84.875848 C 201.76373,84.875848 200.65252,84.67134 199.39693,84.67134 C 198.03352,84.67134 196.67013,84.67134 195.30673,84.67134 C 194.14784,84.67134 192.98895,84.67134 191.83007,84.67134 C 190.73935,84.67134 189.64863,84.67134 188.55791,84.67134 C 187.58098,84.67134 186.36222,84.633689 185.69478,84.466832 C 185.1917,84.341062 185.19677,84.093328 184.87673,83.853304 C 183.4006,83.48427 182.96403,82.758634 182.21811,82.012717 C 181.15745,80.952053 180.27307,80.990167 178.74145,80.990167 C 178.39973,80.990167 176.50183,81.652325 175.87831,81.808203 C 174.61687,82.123563 174.45905,82.000413 173.62871,82.830754 C 173.33643,83.123034 172.32573,81.323268 172.19714,81.194675 C 171.47021,80.467754 171.08901,80.000975 170.56106,78.945072 C 170.51439,78.851735 171.58361,76.964914 171.58361,76.081936 C 171.58361,74.991216 171.58361,73.900497 171.58361,72.809778 C 171.58361,71.58272 171.58361,70.355662 171.58361,69.128604 C 171.58361,68.35804 169.43835,67.44245 168.72048,67.08351 C 167.50887,66.477709 167.69793,66.011197 167.69793,64.629394 C 167.69793,63.87232 168.92498,63.756608 168.92498,62.379786 C 168.92498,60.718401 169.82839,59.806529 168.92498,58.903121 C 168.15777,58.135918 168.1185,57.517807 167.90243,56.653519 C 167.90243,56.380838 167.90243,56.108158 167.90243,55.835478 C 167.90243,55.436846 167.2889,54.38618 167.2889,53.381362 C 167.2889,52.157228 167.1428,51.569895 166.87989,50.518227 C 166.70908,49.835007 165.59747,49.589469 165.24381,48.88215 C 164.83868,48.071894 165.21461,46.55955 164.83479,45.609995 z "
       id="path2223"
	   class="EDO"
       sodipodi:nodetypes="cssscssssssssscssssssssssssssssssssssssssssssssssscssssssssssssssssssssscsssssssssssscssssssssssssssscsssssssssssssssssssssssssccssssssssscsssssssssssssc" />
    <path
       style="fill:#5b5b5b;fill-opacity:1;fill-rule:evenodd;stroke:none;stroke-width:1px;stroke-linecap:butt;stroke-linejoin:miter;stroke-opacity:1"
       d="M 228.23278,0.004340007 C 227.71098,0.004340007 225.90694,0.004340007 224.75612,0.004340007 C 223.63302,0.004340007 224.14931,1.8717942 224.3471,2.6629657 C 224.57005,3.5547627 224.3471,4.8059282 224.3471,5.7306108 C 224.3471,6.8213289 224.3471,7.9120472 224.3471,9.0027652 C 224.3471,9.4604112 222.51803,11.168844 222.302,11.456881 C 221.58161,12.417402 220.61792,13.088792 219.84789,14.115507 C 219.07928,15.140322 219.23436,16.322296 219.23436,17.592171 C 219.23436,18.751059 219.23436,19.909947 219.23436,21.068835 C 219.23436,22.159553 219.23436,23.250272 219.23436,24.34099 C 219.23436,25.022688 219.23436,25.704388 219.23436,26.386086 L 204.91869,26.386086 C 204.91869,27.048005 203.48022,28.254249 203.28261,29.044712 C 203.08153,29.849014 202.16106,30.812783 201.64653,31.498828 C 201.17357,32.129436 200.52808,32.569324 199.80594,32.930395 C 198.52382,33.571456 198.00175,34.728953 198.9879,34.975492 C 200.08783,35.250475 200.86408,34.762084 201.64653,34.566473 C 202.53833,34.343524 203.78949,34.566473 204.71417,34.566473 C 205.63247,34.566473 206.78203,34.134699 207.3728,33.543925 C 208.10052,32.816207 208.7276,32.930395 210.03142,32.930395 C 211.4317,32.930395 212.06114,34.300426 212.28103,35.180002 C 212.57163,36.342398 214.53886,36.709713 212.69005,37.634118 C 211.84776,38.055266 211.54768,38.512069 210.84946,38.861176 C 210.17158,39.200117 209.41497,40.295674 209.00887,40.701763 C 208.37301,41.337636 207.75595,41.475141 206.75927,41.724311 C 205.296,42.090128 205.19946,41.648041 204.30516,42.54235 C 203.69884,43.148663 203.92002,44.491901 203.69163,45.405485 C 203.39952,46.573923 203.31166,46.778956 202.87359,47.655092 C 202.57073,48.260811 204.89523,48.064111 205.53221,48.064111 C 206.55476,48.064111 207.57731,48.064111 208.59986,48.064111 C 209.75875,48.064111 210.91764,48.064111 212.07652,48.064111 C 213.20647,48.064111 214.33271,48.062795 215.34868,47.859601 C 215.91094,47.747148 217.40946,46.986513 218.0073,46.837053 C 219.23622,46.529825 219.6548,46.626833 220.46142,46.223524 C 221.31311,45.797677 222.03607,45.814505 223.12005,45.814505 C 224.3512,45.814505 225.50426,45.881811 226.18769,46.223524 C 226.69049,46.474922 226.34531,47.356805 226.59671,47.859601 C 227.24478,48.183634 226.65924,51.086128 226.59671,51.336266 C 226.39468,52.144373 225.77867,52.101594 225.77867,53.585872 C 225.77867,54.44284 226.62416,55.685868 227.00573,56.449005 C 227.48688,57.411311 228.71933,56.350107 229.05083,57.676063 C 229.34406,58.84899 229.71382,59.411078 230.07337,60.130179 C 230.34833,60.680085 232.70832,60.130179 233.34553,60.130179 C 234.41848,60.130179 234.74437,61.226341 234.9816,62.175279 C 235.24029,63.210034 236.96919,63.811358 238.04925,63.811358 C 239.23574,63.811358 239.77843,64.173826 240.91238,63.606844 C 242.11866,63.003704 242.62744,63.244388 243.16199,62.175279 C 243.59875,61.30177 244.25751,61.678896 244.59356,60.334692 C 244.73201,59.780899 245.15054,58.402683 245.4116,57.880577 C 246.318,56.067762 249.09277,58.730462 249.09277,55.835478 C 249.09277,54.747377 249.04276,53.335809 248.88826,52.563324 C 248.76957,51.96989 247.12283,50.184364 246.84316,49.904698 C 246.27984,49.341377 247.29382,47.367304 247.45669,47.041562 C 247.86263,46.229695 248.25903,45.263814 248.47924,44.382937 C 248.67199,43.611949 249.31203,42.483355 249.50179,41.724311 C 249.75094,40.727709 250.28237,40.03355 250.52434,39.065686 C 250.81046,37.921194 250.34251,36.77815 249.91081,36.202551 C 249.23977,35.307824 248.1426,34.434337 247.45669,33.748434 C 246.6379,32.929645 246.54821,31.582738 246.02513,30.885299 C 245.35929,29.997519 246.63866,28.72287 246.63866,27.613144 C 246.63866,27.59324 247.24327,26.806986 247.25219,26.795106 C 247.25219,26.632607 244.62213,24.807141 244.38905,24.34099 C 243.67828,22.919445 242.55602,22.106492 241.93493,20.864326 C 241.63262,20.259705 240.41739,19.346788 239.88984,18.819229 C 239.06365,17.993042 238.48945,17.604643 237.43572,17.183152 C 235.79829,16.528179 235.50533,15.89723 233.75454,15.547074 C 232.87841,15.371848 232.11672,14.11201 231.70945,13.297468 C 231.31833,12.515234 231.41572,11.278453 231.09592,10.638842 C 230.68607,9.8191352 230.27788,8.1104432 230.27788,6.9576686 C 230.27788,5.8489846 229.7082,4.4744233 229.45984,3.4810043 C 229.14246,2.2114695 228.58341,1.4068218 228.23278,0.004340007 z "
       id="path2225"
	   class="EDO"
	   />
    <path
       style="fill:#5b5b5b;fill-opacity:1;fill-rule:evenodd;stroke:none;stroke-width:1px;stroke-linecap:butt;stroke-linejoin:miter;stroke-opacity:1"
       d="M 275.47452,35.998041 C 275.13313,34.632491 272.4653,37.108238 272.40688,37.225099 C 272.10647,37.825906 272.11167,39.632971 271.99785,40.088234 C 271.66105,41.435453 272.86695,42.184386 273.42942,42.74686 C 274.35013,43.667567 274.38229,44.308714 274.65648,45.405485 C 274.87943,46.297282 274.65648,47.548448 274.65648,48.47313 C 274.65648,49.594003 274.24977,50.309099 273.83844,51.131756 C 273.42711,51.954418 273.24076,52.563324 271.99785,52.563324 C 270.56628,52.563324 269.13472,52.563324 267.70315,52.563324 C 266.41446,52.563324 265.38929,52.493198 264.43099,52.972343 C 263.29706,53.539311 263.61296,54.469764 263.61296,55.835478 C 263.61296,56.994365 263.61296,58.153253 263.61296,59.312142 C 263.61296,59.88444 261.48155,59.925671 260.95433,59.925671 C 259.64364,59.925671 258.38354,60.130179 257.06865,60.130179 C 255.94777,60.130179 255.23268,60.536892 254.41002,60.948221 C 253.69585,61.305304 252.76655,61.307959 251.7514,61.56175 C 250.57946,61.85473 250.19058,62.07876 249.91081,63.197829 C 249.64712,64.252592 249.86792,66.093937 250.11532,67.08351 C 250.20953,67.460358 247.82997,67.654847 247.66121,67.697039 C 247.4628,67.74664 247.66121,68.10606 247.66121,68.310568 C 247.55651,68.336742 247.66121,71.61329 247.66121,71.991741 C 247.66121,72.970567 247.86571,74.160946 247.86571,75.263899 C 247.86571,75.682713 247.04767,77.307437 247.04767,78.536051 C 247.04767,79.506999 247.66121,79.636934 247.66121,80.990167 C 247.66121,82.149055 247.66121,83.307944 247.66121,84.466832 C 247.66121,85.847738 247.99503,86.445163 246.63866,86.716435 C 245.44209,86.955753 244.1455,86.683342 242.95748,86.920948 C 241.81,87.150444 240.66576,87.442748 239.48082,87.738985 C 238.73319,87.92589 239.0718,89.879487 239.0718,90.602121 C 239.0718,91.624672 239.0718,92.647216 239.0718,93.669766 C 239.0718,94.604029 238.68834,95.81714 238.45827,96.73741 C 238.23837,97.617012 238.25376,98.666782 238.25376,99.805052 C 238.25376,101.20675 240.35582,100.8276 241.3214,100.8276 C 242.74042,100.8276 243.08509,100.6738 243.57101,101.64564 C 244.25146,103.00654 243.93784,102.8727 245.82061,102.8727 C 247.76826,102.8727 248.54187,102.65988 249.50179,104.09976 C 249.60875,104.26019 249.77447,104.37244 249.91081,104.50878 C 251.05874,106.23067 251.80794,106.55387 253.59198,106.55387 C 255.42146,106.55387 256.77662,107.69817 258.50021,107.98544 C 259.6635,108.17932 261.24907,108.18995 262.3859,108.18995 C 263.7485,108.18995 264.84048,109.11036 266.06707,109.41701 C 266.62578,109.55668 268.53216,108.95412 269.13472,108.80348 C 270.13178,108.55422 271.5542,108.36049 272.40688,108.18995 C 272.86845,108.09764 273.29128,107.74775 273.63393,107.57642 L 277.92864,120.86955 C 279.12117,120.63104 280.15626,121.33519 281.20079,121.07406 C 281.63996,120.96426 281.4053,118.63061 281.4053,118.21093 C 281.4053,117.52196 282.39677,116.40141 282.83687,115.96132 C 283.65023,115.14795 283.7106,114.61808 284.88196,114.32524 C 285.83921,114.08593 286.7083,113.10886 287.54059,112.48465 C 288.59303,111.69532 288.56075,111.09255 290.19921,112.07564 C 291.01746,112.56658 291.46151,112.80023 292.65333,113.09818 C 293.7773,113.37918 294.46964,112.50893 295.10745,111.87112 C 296.42634,110.55223 296.45989,111.50836 295.51647,109.62152 C 295.0103,108.6092 294.90294,108.00311 294.90294,106.75838 C 294.90294,105.53387 294.5271,104.26568 294.28941,103.07721 C 294.11198,102.19006 293.93205,101.23876 293.67588,100.21407 C 293.39186,99.078002 293.47137,97.916322 293.47137,96.73741 C 293.47137,95.442183 293.47137,94.146956 293.47137,92.851729 C 293.47137,91.774991 294.0849,90.883643 294.0849,89.784085 C 294.0849,88.986606 292.97783,88.06349 292.44882,87.534477 C 291.45127,86.536921 290.67452,85.5391 289.79019,84.875848 C 289.22804,84.454234 288.90606,84.110501 288.56313,83.853304 C 287.70085,83.20659 290.96034,83.058393 291.22176,82.012717 C 291.41819,81.227021 292.62116,80.440984 293.06235,79.558601 C 293.52458,78.634149 295.10624,80.381456 295.51647,78.740559 C 295.80211,77.597971 295.51647,76.035406 295.51647,74.854878 C 295.51647,73.791669 295.05561,73.273456 295.31195,71.991741 C 295.33869,71.858052 295.31195,71.719064 295.31195,71.58272 C 295.31195,70.268219 297.07739,69.0243 297.76607,68.10606 C 298.09671,67.665219 297.76607,65.625562 297.76607,65.038416 C 297.76607,64.61498 295.23816,64.09967 294.90294,64.015865 C 293.05762,63.554536 291.41497,63.402337 289.38118,63.402337 C 288.34699,63.402337 287.03747,63.378811 286.31353,63.197829 C 285.47118,62.987236 285.29098,61.001085 285.29098,60.334692 C 285.29098,59.310031 285.49549,58.193039 285.49549,57.062534 C 285.49549,55.814515 285.41952,54.503293 285.7,53.381362 C 285.97814,52.268827 286.27213,51.297341 286.51804,50.313717 C 286.82874,49.070916 286.72255,47.720437 286.72255,46.428033 C 286.72255,45.200976 286.72255,43.973918 286.72255,42.74686 C 286.72255,41.194318 286.59209,41.315292 285.08648,41.315292 C 283.69439,41.315292 282.5242,41.170955 281.20079,40.906273 C 280.09583,40.685282 279.31854,40.537966 278.33765,40.292744 C 277.0941,39.981856 275.86023,40.28109 275.0655,39.883724 C 274.71017,39.70606 275.20708,37.067769 275.27001,36.816079 C 275.33818,36.5434 275.40635,36.27072 275.47452,35.998041 z "
       id="path2227" class="EDO" />
    <path
       style="fill:#5b5b5b;fill-opacity:1;fill-rule:evenodd;stroke:none;stroke-width:1px;stroke-linecap:butt;stroke-linejoin:miter;stroke-opacity:1"
       d="M 299.19764,112.68917 C 298.8369,113.29039 299.85227,112.76059 298.58411,113.71171 C 297.6046,114.44635 296.395,115.34779 295.31195,115.34779 C 294.73393,115.34779 292.49817,115.69156 292.0398,115.34779 C 291.71603,115.10496 290.19788,113.61012 289.58569,113.91622 C 288.93264,114.24275 288.34212,114.54625 287.7451,115.14328 C 287.13037,115.75801 286.58163,116.54305 285.7,116.98387 C 284.66167,117.50303 283.56054,120.2718 283.04137,119.23347 L 282.42785,123.52817 L 276.90609,123.11916 L 272.61138,109.62152 L 267.29413,111.25759 L 264.22649,119.64249 L 267.49864,125.16425 L 261.36335,125.36876 L 261.36335,130.4815 L 271.38433,132.32209 L 270.36178,142.95659 L 274.86099,144.79718 L 275.47452,138.66189 L 280.17824,139.27542 L 282.01882,132.5266 L 287.94961,134.16268 L 291.63078,141.52502 L 300.62921,140.91149 L 307.17352,149.5009 L 301.44725,154.81815 L 309.62763,160.74893 L 321.6937,163.20305 L 323.53429,155.02267 L 331.71468,154.00011 L 327.62448,147.66031 L 334.78232,143.1611 L 342.7582,155.02267 L 352.77917,156.45423 L 353.18819,166.06619 L 370.77602,166.06619 L 389.3864,183.85852 L 402.066,171.38344 L 404.1111,155.43168 L 396.33973,148.88738 L 393.06757,150.31894 L 385.29621,147.04678 C 384.69864,147.04678 383.33291,147.4149 383.0466,146.84228 L 378.7519,138.04836 C 378.08503,138.04836 377.07359,138.16842 376.7068,137.43483 C 376.32812,136.67747 375.70819,135.39572 374.86621,135.18523 C 373.70468,134.89484 373.04576,134.68402 372.00308,134.16268 C 371.25013,133.7862 370.82676,133.54915 369.54897,133.54915 C 368.33479,133.54915 367.90296,133.54915 366.68583,133.54915 C 365.66328,133.54915 364.64073,133.54915 363.61819,133.54915 C 363.23973,133.54915 359.96319,133.44446 359.93701,133.54915 L 359.93701,129.25445 L 335.80487,122.50563 L 338.87252,113.91622 L 333.35076,114.12073 L 333.35076,106.75838 L 346.23486,106.55387 L 348.07545,94.896824 L 345.41683,80.990167 L 338.25899,81.194675 L 335.60036,69.333118 L 337.03193,65.651944 L 333.14624,60.948221 L 324.35233,62.993315 L 324.35233,59.51665 L 318.83056,57.676063 L 314.94488,63.197829 L 299.60666,64.833902 C 300.53538,64.137367 299.40215,67.149678 299.40215,68.310568 C 299.40215,68.675089 297.72391,69.784296 297.56156,69.946647 C 296.88769,70.620513 297.20236,71.737412 296.53902,72.400762 C 296.1897,72.750077 296.53902,75.362147 296.53902,75.877428 C 296.53902,77.112775 297.35705,78.161181 297.35705,79.558601 C 297.35705,80.15115 295.66762,81.388076 295.10745,81.808203 C 294.21371,82.4785 293.16166,82.372079 292.24431,82.830754 C 290.97693,83.464447 290.50724,84.365837 291.22176,85.080361 C 291.91585,85.774444 293.61196,86.652511 294.49392,87.534477 C 294.69842,87.738985 294.90294,87.943498 295.10745,88.148006 C 295.89867,88.939232 295.92548,90.256752 295.92548,91.420158 C 295.92548,92.695805 295.31195,92.829465 295.31195,94.283295 C 295.31195,94.419633 295.31195,94.555972 295.31195,94.692316 C 295.31195,96.026229 295.51647,97.41842 295.51647,98.782502 C 295.51647,99.805052 295.51647,100.8276 295.51647,101.85015 C 295.51647,102.93296 296.47057,104.43951 296.74352,105.53133 C 297.11941,107.03488 297.59785,108.53961 297.97058,110.03054 C 298.2278,111.05939 298.44126,111.74369 299.19764,112.68917 z "
       id="path2229" class="EDO" />
    <path
       style="fill:#5b5b5b;fill-opacity:1;fill-rule:evenodd;stroke:none;stroke-width:1px;stroke-linecap:butt;stroke-linejoin:miter;stroke-opacity:1"
       d="M 72.778261,131.32337 C 72.34196,131.4644 71.742153,131.16685 71.18755,130.88954 L 49.351414,141.59069 L 25.359198,173.83755 L 19.837438,188.56225 L 12.884109,193.67499 L 4.908232,219.64772 L 0,224.14693 L 0.613529,227.41909 L 4.908232,230.48673 L 10.839013,231.30477 L 7.3623485,244.39339 L 14.724696,244.39339 L 21.882534,256.45946 L 52.149964,275.47885 L 58.898785,274.04729 L 61.3529,268.11651 L 68.715248,270.36611 L 70.146814,261.16318 L 77.304653,261.16318 L 79.963282,256.05044 L 86.916607,258.70907 C 87.189284,258.77723 87.461967,258.8454 87.734644,258.91357 C 88.668565,259.14705 90.176577,258.83421 90.802294,258.70907 C 91.669504,258.53562 91.886755,257.01107 92.438367,256.45946 C 93.166098,255.73173 93.092404,255.3144 94.074446,254.82338 L 104.29993,263.00377 L 108.79914,260.14063 L 110.63973,265.66239 L 112.48031,265.04886 L 111.45777,261.16318 L 124.13737,260.14063 L 126.59148,251.55123 L 135.3854,251.14221 L 132.52226,243.77986 L 123.72835,239.68966 L 113.50286,242.5528 L 111.45777,229.66869 L 107.57208,222.30634 L 112.68483,218.62517 C 112.8894,218.52288 112.68483,215.1291 112.68483,214.73949 C 112.68483,213.71694 112.68483,212.69439 112.68483,211.67184 C 112.68483,210.58112 112.68483,209.4904 112.68483,208.39968 C 112.68483,206.72625 113.69802,206.23072 114.52541,205.12753 C 115.2869,204.11222 116.11168,203.68351 114.52541,203.28695 C 113.18279,202.95129 111.77466,202.69589 110.63973,202.4689 C 110.41028,202.42302 110.04046,202.16927 109.82169,202.05989 L 110.23071,191.22088 L 116.16149,182.42696 L 114.32091,165.65716 L 109.41267,164.63462 L 111.86678,154.40914 L 108.39012,152.15953 L 108.18561,154.40914 L 100.82326,158.09031 L 104.29993,146.02424 L 90.802294,135.79876 L 83.848962,139.88895 L 78.736224,135.59424 L 76.895631,139.68444 L 71.782893,139.47993 L 72.778261,131.32337 z "
       id="path2231" class="EDO" />
    <path
       style="fill:#5b5b5b;fill-opacity:1;fill-rule:evenodd;stroke:none;stroke-width:1px;stroke-linecap:butt;stroke-linejoin:miter;stroke-opacity:1"
       d="M 114.93443,265.66239 L 126.38698,265.04886 L 151.33715,277.93297 L 156.85891,281.81866 L 166.47087,281.61414 L 169.12949,289.79453 L 203.89614,301.8606 L 217.39377,310.45001 L 223.73357,307.58688 L 228.4373,300.02002 L 227.41475,294.29375 L 237.43572,295.72531 L 237.43572,298.79296 L 255.02355,298.17943 L 261.36335,282.43218 L 276.70158,285.70434 L 279.56471,278.5465 L 286.10902,281.20513 L 291.63078,278.75101 L 293.26686,273.43376 L 300.83372,267.29847 L 300.62921,264.63984 L 311.26371,257.68652 L 308.60509,252.98279 L 313.51332,249.09711 L 318.42155,250.11966 L 319.44409,247.87005 L 307.78704,244.5979 L 292.65333,247.25652 L 288.15412,250.73318 L 287.13157,242.75731 L 277.31511,227.21457 L 279.15569,216.98909 L 285.7,219.03419 L 286.51804,203.08243 L 281.60981,199.60577 L 282.83687,192.24342 L 294.69842,192.65244 L 295.92548,176.9052 L 319.64861,180.58637 L 320.05762,178.33676 L 308.40057,171.99697 L 308.19607,161.15795 L 298.99313,154.61364 L 304.7194,149.5009 L 300.01568,143.36561 L 292.0398,143.77463 L 295.10745,149.09188 L 288.76765,166.88422 L 282.01882,161.15795 L 282.42785,157.8858 L 272.40688,157.8858 L 264.43099,157.27227 L 260.34081,159.72638 L 258.50021,170.5654 L 267.90766,171.79245 L 268.11217,183.04049 L 259.31826,180.58637 L 254.81904,188.97127 L 241.93493,194.08401 L 239.0718,189.38029 L 231.70945,192.44793 L 228.02828,190.81185 L 226.3922,192.85695 L 226.59671,196.33361 L 212.69005,193.47048 L 211.6675,199.60577 L 203.89614,204.71851 L 195.30673,203.90047 L 193.26163,211.05831 L 185.49026,210.03576 L 178.53694,218.62517 L 177.10537,230.07771 L 164.01675,241.73476 L 149.70107,239.48516 L 136.81697,241.73476 L 134.77187,244.18887 L 137.635,252.36926 L 135.18089,253.59632 L 128.22756,253.80083 L 125.56893,262.18573 L 114.11639,263.41278 C 114.11639,263.68547 114.11639,263.95814 114.11639,264.23083 C 114.11639,265.11773 114.03558,264.76354 114.93443,265.66239 z "
       id="path2233"
	   class="EDO"
       sodipodi:nodetypes="ccccccccccccccccccccccccccccccccccccccccccccccc" />
    <path
       style="fill:#5b5b5b;fill-opacity:1;fill-rule:evenodd;stroke:none;stroke-width:1px;stroke-linecap:butt;stroke-linejoin:miter;stroke-opacity:1"
       d="M 393.27209,194.69754 L 411.88247,193.67499 L 412.29148,204.71851 L 395.52169,202.4689 L 339.69055,220.46575 L 339.28153,225.78301 L 331.51016,225.16948 L 329.66958,234.37241 L 320.67116,246.02947 L 307.99155,242.75731 L 292.0398,245.62045 L 289.58569,247.87005 L 288.76765,241.32574 L 278.95118,227.41909 L 280.58726,219.03419 L 287.54059,221.2838 L 288.56313,202.05989 L 283.85941,198.99224 L 284.67745,194.49303 L 296.13,194.69754 L 297.76607,178.95029 L 321.08017,182.83598 L 321.89821,178.13226 L 310.85469,171.38344 L 310.44567,162.79403 L 323.32978,165.24815 L 325.17037,156.45423 L 333.96428,155.43168 L 331.10115,148.88738 L 333.55526,145.61522 L 342.55369,157.27227 L 350.12054,157.68129 L 350.93859,168.31579 L 370.367,167.70226 L 388.77287,186.72166 L 393.27209,194.69754 z "
       id="path2239" class="EDO" />
    <path
       style="fill:#5b5b5b;fill-opacity:1;fill-rule:evenodd;stroke:none;stroke-width:1px;stroke-linecap:butt;stroke-linejoin:miter;stroke-opacity:1"
       d="M 114.93443,240.09869 L 123.93285,237.44006 L 133.3403,242.5528 L 135.99892,240.09869 L 150.51912,237.84908 L 162.38067,239.48516 L 175.26479,228.85065 L 176.28733,217.1936 L 184.26321,208.19518 L 192.03457,208.80871 L 193.87516,201.85537 L 203.48711,202.87792 L 210.84946,197.76519 L 211.25848,191.8344 L 224.75612,194.08401 L 225.98318,188.56225 L 231.70945,189.99382 L 238.86729,186.72166 L 240.29885,181.81343 L 231.70945,180.38186 C 231.70945,181.5724 233.11722,177.95154 233.95906,177.10971 C 234.74516,176.3236 235.15778,175.73481 235.79964,174.45108 C 236.19735,173.65567 236.20867,172.33893 236.20867,171.38344 C 236.20867,170.37832 236.18087,169.22717 236.00415,168.5203 C 235.85695,167.93148 234.84843,167.16007 234.57259,166.88422 C 234.98161,166.81605 235.39062,166.74788 235.79964,166.67971 C 237.40921,166.41146 238.81988,165.77127 240.09435,165.45266 C 241.65241,165.06314 241.08099,164.83913 239.68533,164.83913 C 238.59461,164.83913 237.50389,164.83913 236.41317,164.83913 L 235.18612,160.95345 L 222.0975,158.49932 L 212.89456,161.77148 L 210.84946,158.29482 L 216.37123,152.77306 L 207.3728,148.06933 L 203.48711,155.22717 L 196.7383,154.40914 L 182.0136,156.65874 L 176.28733,166.27069 L 176.69635,175.26912 L 172.19714,172.6105 L 168.72048,179.76833 L 159.72205,177.31422 L 151.54166,168.5203 L 147.45147,170.97442 L 152.97323,176.49618 L 153.99578,184.06304 L 145.81539,180.99539 L 128.84109,181.60892 L 125.56893,186.10813 L 118.20659,184.47206 L 112.27581,191.62989 L 111.86678,201.03734 L 117.59306,202.4689 C 116.94634,202.4689 117.4969,203.92146 116.97953,204.30949 C 116.20707,204.88883 115.7367,205.59963 115.54796,206.35459 C 115.30709,207.31808 114.57832,207.35068 113.70738,207.78616 L 114.72992,219.64772 L 110.0262,222.51086 L 113.50286,230.07771 L 114.93443,240.09869 z "
       id="path2241"
	   class="EDO"
       sodipodi:nodetypes="ccccccccccccccccccccssssc" />
    <path
       style="fill:#5b5b5b;fill-opacity:1;fill-rule:evenodd;stroke:none;stroke-width:1px;stroke-linecap:butt;stroke-linejoin:miter;stroke-opacity:1"
       d="M 265.24904,111.05309 L 249.7063,106.75838 L 247.66121,104.50878 L 244.59356,104.50878 L 244.59356,106.55387 L 241.93493,106.55387 L 240.09435,108.59897 L 229.86886,108.39446 L 232.32298,116.57485 L 226.59671,118.61994 L 210.44045,118.21093 L 205.73672,128.43641 L 196.53379,124.14171 L 194.89771,136.41228 L 183.24066,140.70699 L 182.42262,154.61364 L 196.12477,152.15953 L 202.26006,152.36404 L 206.35025,145.2062 C 206.28208,145.47887 206.89561,145.34254 207.16829,145.41071 L 218.21181,152.15953 L 213.09907,158.09031 L 213.91711,160.33992 L 221.89299,157.06776 L 233.14102,146.43325 L 233.14102,143.57012 L 228.84631,141.32052 L 228.84631,138.04836 L 239.68533,136.61679 L 242.54846,140.50248 L 245.82061,140.50248 L 246.02513,137.02581 L 260.13629,137.84385 L 260.13629,142.13855 L 267.08962,144.79718 L 267.08962,148.47835 L 270.15727,149.29639 L 270.15727,144.79718 L 267.90766,142.95659 L 269.13472,133.34464 L 259.31826,131.50405 L 259.72728,123.93719 L 264.84002,123.93719 L 261.97688,120.25602 L 265.24904,111.05309 z "
       id="path2243" class="EDO" />
    <path
       style="fill:#5b5b5b;fill-opacity:1;fill-rule:evenodd;stroke:none;stroke-width:1px;stroke-linecap:butt;stroke-linejoin:miter;stroke-opacity:1"
       d="M 242.54846,180.99539 L 240.29885,187.94872 L 242.95748,191.8344 L 253.59198,187.33519 L 258.50021,178.13226 L 266.47609,180.79088 L 266.06707,173.42853 L 256.45512,171.58795 L 258.50021,158.09031 L 264.84002,155.02267 L 284.26843,156.45423 L 283.6549,159.9309 L 287.54059,163.40756 L 292.85784,149.5009 L 286.92706,135.38973 L 283.4504,134.5717 L 281.4053,141.72954 L 277.11059,140.91149 L 276.29256,146.22875 L 271.79334,145.61522 L 271.58883,151.546 L 266.06707,150.11443 L 266.06707,146.02424 L 259.52276,143.57012 L 258.90923,140.09346 L 247.66121,139.07091 L 247.66121,142.34307 L 241.73043,142.34307 L 238.66278,138.25287 L 230.6869,140.09346 L 236.00415,142.95659 L 235.39062,146.02424 L 224.3471,156.65874 L 237.0267,159.72638 L 237.64023,162.38501 L 242.95748,163.61207 L 242.95748,166.47521 L 237.64023,167.49775 C 237.42864,168.34411 238.45827,170.25755 238.45827,171.38344 C 238.45827,172.44574 238.49005,173.50593 238.25376,174.45108 C 237.93638,175.7206 237.71344,176.42296 236.82219,177.31422 C 236.14154,177.99487 235.8832,178.11137 234.9816,178.33676 L 242.54846,180.99539 z "
       id="path2245" class="EDO" />
    
  </g>
</svg>
